<svg version="1.1" id="Layer_1" xmlns="http://www.w3.org/2000/svg" xmlns:xlink="http://www.w3.org/1999/xlink" x="0px" y="0px"
	 width="100%" viewBox="0 0 786 1000" enable-background="new 0 0 786 1000" xml:space="preserve">
<path fill="#000000" opacity="1.000000" stroke="none" 
	d="
M787.000000,192.000000 
	C787.000000,215.354233 787.000000,238.708450 786.591492,262.698730 
	C785.455627,275.153229 784.869324,286.982544 783.958191,298.786774 
	C783.166565,309.042511 782.253296,319.301178 780.955261,329.502716 
	C778.824829,346.245850 776.610657,362.987579 773.920959,379.647430 
	C771.606262,393.984833 768.578308,408.207092 765.408508,422.448303 
	C763.619080,422.390228 762.286926,422.341187 760.954712,422.341156 
	C516.346008,422.337799 271.737335,422.337677 27.128635,422.342865 
	C25.463497,422.342896 23.798357,422.417786 21.787956,422.197571 
	C19.295574,411.002319 16.876675,400.111877 15.069696,389.120819 
	C12.778820,375.186340 10.910236,361.180389 8.998836,347.186218 
	C7.236718,334.285004 5.305387,321.391510 4.101883,308.433899 
	C2.960195,296.141876 2.682377,283.770172 1.961627,271.437195 
	C1.913219,270.608887 1.332917,269.811676 1.000000,269.000000 
	C1.000000,241.979111 1.000000,214.958206 1.408096,187.301773 
	C2.741441,173.206741 3.666690,159.747253 4.557460,146.789337 
	C19.022600,149.652405 32.554665,152.798035 46.245468,154.918930 
	C62.327747,157.410324 78.500359,159.942154 94.719902,160.770691 
	C116.429405,161.879669 138.244446,161.285324 159.684921,156.936462 
	C175.609512,153.706421 191.629333,150.629135 207.218521,146.136642 
	C230.417175,139.451218 252.189102,129.250717 273.113281,117.085922 
	C297.719696,102.780388 320.083344,85.586166 340.421295,65.842499 
	C351.152496,55.424858 361.194275,44.190880 370.638123,32.585617 
	C378.762085,22.602306 385.595795,11.569014 393.000000,0.999998 
	C393.444458,1.000000 393.888885,1.000000 394.751526,1.349075 
	C406.117065,20.259825 419.783875,36.774681 434.266418,52.582973 
	C441.747467,60.748821 449.866486,68.414429 458.291656,75.610085 
	C469.286346,85.000221 480.585724,94.090172 492.261139,102.614738 
	C515.113037,119.299545 540.225403,132.009262 566.696228,141.756424 
	C584.482300,148.305664 602.752502,153.646484 621.690125,155.984253 
	C636.410156,157.801376 651.127625,160.043213 665.913391,160.822006 
	C684.685608,161.810760 703.493652,160.858154 722.133850,157.989716 
	C732.535156,156.389084 742.962280,154.903732 753.298401,152.947052 
	C763.172180,151.077911 772.943054,148.665146 783.312439,146.368820 
	C784.208618,160.920456 785.094604,175.493958 786.040649,190.063538 
	C786.083740,190.726990 786.667908,191.355316 787.000000,192.000000 
M287.481140,181.996124 
	C277.411682,180.713989 267.342194,179.431870 257.241455,178.145752 
	C257.258514,177.971161 257.167877,178.465134 257.167816,178.959106 
	C257.160461,234.266342 257.203186,289.573700 257.061310,344.880554 
	C257.051880,348.561310 258.964569,349.855988 261.623901,351.026337 
	C270.866425,355.093842 280.703186,356.039978 290.492706,354.951843 
	C309.492920,352.839966 328.405334,349.946075 347.365723,347.464905 
	C361.769867,345.579956 376.246002,343.420319 389.151947,353.012695 
	C389.278961,353.107056 389.711700,352.790100 390.172668,352.591522 
	C390.172668,350.832001 390.172699,349.004852 390.172699,347.177704 
	C390.172699,295.202240 389.930756,243.224579 390.401154,191.253372 
	C390.483459,182.160599 386.356903,177.485031 379.119324,174.836533 
	C374.255798,173.056793 368.706238,171.930405 363.594269,172.303238 
	C352.671967,173.099854 341.840210,175.103394 330.960938,176.532837 
	C316.792969,178.394394 302.614899,180.178635 287.481140,181.996124 
M524.209229,351.872589 
	C529.379822,350.507996 530.676575,347.230438 530.654846,341.934479 
	C530.436829,288.787933 530.522217,235.640137 530.522217,182.492691 
	C530.522217,180.735458 530.522278,178.978241 530.522278,176.669708 
	C516.366821,181.907120 502.427155,183.198654 488.228149,181.181107 
	C468.470795,178.373734 448.748566,175.319138 428.991089,172.512695 
	C418.926331,171.083038 409.397705,172.269791 401.313568,179.264832 
	C398.658997,181.561783 397.379303,184.114685 397.388458,187.862427 
	C397.519257,241.342758 397.477692,294.823517 397.477692,348.304169 
	C397.477692,349.877441 397.477692,351.450745 397.477692,354.027557 
	C407.941925,345.770599 419.129028,344.870209 430.572937,346.311615 
	C447.727966,348.472351 464.808411,351.218475 481.945465,353.531158 
	C495.840698,355.406311 509.764954,356.793121 524.209229,351.872589 
M495.666107,362.110016 
	C474.063904,359.225433 452.476624,356.222321 430.853424,353.504822 
	C419.558105,352.085327 408.465332,352.263611 399.697327,361.279816 
	C396.172577,364.904327 391.776398,364.750610 388.001312,361.266357 
	C385.719421,359.160278 383.088013,357.247833 380.295349,355.915710 
	C372.644684,352.266266 364.462830,352.482361 356.298096,353.513214 
	C333.524567,356.388519 310.785187,359.553619 287.982666,362.171387 
	C278.108795,363.304932 268.292114,361.509155 259.140137,357.761200 
	C252.572876,355.071777 249.820053,352.699005 249.868484,344.365967 
	C250.148392,296.212280 250.005112,248.056183 250.005096,199.900894 
	C250.005096,198.084015 250.005081,196.267136 250.005081,194.098251 
	C245.944290,194.995499 242.292480,196.193787 238.563995,196.522476 
	C234.349472,196.893997 233.731781,198.909500 233.740479,202.688141 
	C233.865219,256.841736 233.825699,310.995697 233.825699,365.149567 
	C233.825699,366.753052 233.825684,368.356537 233.825684,369.876282 
	C281.400970,378.027710 328.383606,374.356995 375.483185,368.705933 
	C375.483185,371.433411 375.730408,373.305298 375.435120,375.087311 
	C374.663818,379.741821 376.841095,382.011017 381.191711,382.187042 
	C389.099304,382.506989 397.082397,383.242584 404.913269,382.511597 
	C412.225311,381.829010 412.157013,381.089935 412.173828,373.766907 
	C412.177460,372.184753 412.174316,370.602570 412.174316,368.645966 
	C459.809113,374.524628 506.791260,377.942627 553.757324,369.914764 
	C553.757324,312.289124 553.757324,255.024918 553.757324,197.569809 
	C548.452332,196.440994 543.348083,195.354889 537.825745,194.179825 
	C537.825745,196.444397 537.825745,198.256714 537.825745,200.069031 
	C537.825745,248.724213 537.760864,297.379639 537.939270,346.034149 
	C537.954834,350.283447 536.422363,353.102173 533.247498,355.189362 
	C530.919556,356.719788 528.322571,358.389252 525.667664,358.776001 
	C516.029480,360.179962 506.316437,361.069641 495.666107,362.110016 
M210.818192,247.435516 
	C211.581772,248.683060 212.261703,250.937302 213.123016,251.008881 
	C217.528046,251.374985 221.979874,251.178131 226.593536,251.178131 
	C226.593536,240.341797 226.593536,229.985321 226.593536,219.411133 
	C221.292923,219.411133 216.250031,219.411133 210.818130,219.411133 
	C210.818130,228.594284 210.818130,237.521576 210.818192,247.435516 
M565.656921,333.840149 
	C569.391785,333.840149 573.126709,333.840149 576.646851,333.840149 
	C576.646851,322.774506 576.646851,312.419220 576.646851,302.327881 
	C571.229187,302.327881 566.171509,302.327881 560.997070,302.327881 
	C560.997070,311.933167 561.124451,321.210785 560.925110,330.481384 
	C560.859009,333.554840 562.139954,334.192230 565.656921,333.840149 
M210.818115,313.511719 
	C210.818115,320.239349 210.818115,326.967010 210.818115,333.582764 
	C216.556168,333.582764 221.478561,333.582764 226.537292,333.582764 
	C226.537292,322.950409 226.537292,312.587952 226.537292,302.285400 
	C221.142136,302.285400 216.066116,302.285400 210.818115,302.285400 
	C210.818115,305.891296 210.818115,309.203339 210.818115,313.511719 
M577.003052,233.504883 
	C577.003052,228.767822 577.003052,224.030762 577.003052,219.372421 
	C571.313354,219.372421 566.381348,219.372421 561.359131,219.372421 
	C561.359131,230.089600 561.359131,240.590652 561.359131,250.996613 
	C566.668701,250.996613 571.614746,250.996613 577.003052,250.996613 
	C577.003052,245.389832 577.003052,239.946350 577.003052,233.504883 
z"/>
<path fill="#FFFFFF" opacity="1.000000" stroke="none" 
	d="
M765.865723,422.480255 
	C768.578308,408.207092 771.606262,393.984833 773.920959,379.647430 
	C776.610657,362.987579 778.824829,346.245850 780.955261,329.502716 
	C782.253296,319.301178 783.166565,309.042511 783.958191,298.786774 
	C784.869324,286.982544 785.455627,275.153229 786.591492,263.167419 
	C787.000000,508.904755 787.000000,754.809509 787.000000,1001.000000 
	C656.979248,1001.000000 526.958252,1001.000000 396.564667,1000.672241 
	C396.890869,999.631653 397.528259,998.843323 398.297699,998.217285 
	C410.636353,988.178955 423.327148,978.542664 435.262756,968.047180 
	C452.021545,953.310425 468.419891,938.146973 484.598450,922.772400 
	C497.400238,910.606750 509.972290,898.160400 522.036255,885.267822 
	C534.641052,871.797180 546.625366,857.737732 558.662842,843.748047 
	C564.427979,837.047852 569.689453,829.914246 575.459412,822.811279 
	C607.756836,782.469910 636.663086,740.189392 662.155884,695.174927 
	C669.621338,681.746521 677.119934,668.704590 683.842896,655.274353 
	C691.218140,640.541077 698.482300,625.696899 704.717773,610.460327 
	C715.929871,583.062805 726.742126,555.484314 736.927551,527.690552 
	C742.848816,511.532776 747.659546,494.927002 752.181458,478.308258 
	C757.210388,459.826141 761.342957,441.100098 765.865723,422.480255 
z"/>
<path fill="#FFFFFF" opacity="1.000000" stroke="none" 
	d="
M1.000000,269.468658 
	C1.332917,269.811676 1.913219,270.608887 1.961627,271.437195 
	C2.682377,283.770172 2.960195,296.141876 4.101883,308.433899 
	C5.305387,321.391510 7.236718,334.285004 8.998836,347.186218 
	C10.910236,361.180389 12.778820,375.186340 15.069696,389.120819 
	C16.876675,400.111877 19.295574,411.002319 21.718872,422.577209 
	C23.369572,429.903412 24.472471,436.659485 26.163963,443.264832 
	C35.201447,478.556335 45.349541,513.489929 57.787594,547.785461 
	C70.304390,582.298157 84.436882,616.069763 101.035950,648.787659 
	C108.998589,664.482422 117.713295,679.795715 126.113602,695.621460 
	C127.932426,699.223145 129.530930,702.610779 131.548462,705.727173 
	C147.346695,730.129944 162.849701,754.736572 179.215988,778.754089 
	C189.485779,793.824951 201.089478,807.986755 212.062714,822.877075 
	C225.387115,838.994873 238.248077,855.247131 252.230484,870.469238 
	C268.229034,887.886108 284.978882,904.637390 301.861664,921.209839 
	C316.136810,935.222717 330.902588,948.750793 345.768524,962.141113 
	C355.021698,970.475830 364.880127,978.137390 374.438293,986.135254 
	C380.320038,991.056946 386.147919,996.042908 392.000000,1001.000000 
	C261.717407,1001.000000 131.434814,1001.000000 1.000000,1001.000000 
	C1.000000,757.312439 1.000000,513.624878 1.000000,269.468658 
z"/>
<path fill="#F58025" opacity="1.000000" stroke="none" 
	d="
M392.399994,1001.000000 
	C386.147919,996.042908 380.320038,991.056946 374.438293,986.135254 
	C364.880127,978.137390 355.021698,970.475830 345.768524,962.141113 
	C330.902588,948.750793 316.136810,935.222717 301.861664,921.209839 
	C284.978882,904.637390 268.229034,887.886108 252.230484,870.469238 
	C238.248077,855.247131 225.387115,838.994873 212.431763,822.866699 
	C214.365158,821.271179 216.005493,820.116211 217.414337,818.726624 
	C268.985992,767.859497 320.533203,716.967468 372.092651,666.087952 
	C379.274261,659.001038 386.501373,651.960205 393.836945,644.771118 
	C395.812256,646.619995 397.416351,648.056641 398.949066,649.565796 
	C416.746918,667.090027 434.547058,684.611938 452.321045,702.160400 
	C486.093903,735.504578 519.834839,768.881287 553.625671,802.207214 
	C560.728943,809.212830 567.990417,816.057861 575.179016,822.976929 
	C569.689453,829.914246 564.427979,837.047852 558.662842,843.748047 
	C546.625366,857.737732 534.641052,871.797180 522.036255,885.267822 
	C509.972290,898.160400 497.400238,910.606750 484.598450,922.772400 
	C468.419891,938.146973 452.021545,953.310425 435.262756,968.047180 
	C423.327148,978.542664 410.636353,988.178955 398.297699,998.217285 
	C397.528259,998.843323 396.890869,999.631653 396.096008,1000.672241 
	C394.933319,1001.000000 393.866669,1001.000000 392.399994,1001.000000 
z"/>
<path fill="#FFFFFF" opacity="1.000000" stroke="none" 
	d="
M787.000000,191.531342 
	C786.667908,191.355316 786.083740,190.726990 786.040649,190.063538 
	C785.094604,175.493958 784.208618,160.920456 783.312439,146.368820 
	C772.943054,148.665146 763.172180,151.077911 753.298401,152.947052 
	C742.962280,154.903732 732.535156,156.389084 722.133850,157.989716 
	C703.493652,160.858154 684.685608,161.810760 665.913391,160.822006 
	C651.127625,160.043213 636.410156,157.801376 621.690125,155.984253 
	C602.752502,153.646484 584.482300,148.305664 566.696228,141.756424 
	C540.225403,132.009262 515.113037,119.299545 492.261139,102.614738 
	C480.585724,94.090172 469.286346,85.000221 458.291656,75.610085 
	C449.866486,68.414429 441.747467,60.748821 434.266418,52.582973 
	C419.783875,36.774681 406.117065,20.259825 395.084839,1.349075 
	C525.568542,1.000000 656.137146,1.000000 787.000000,1.000000 
	C787.000000,64.353928 787.000000,127.708305 787.000000,191.531342 
z"/>
<path fill="#FFFFFF" opacity="1.000000" stroke="none" 
	d="
M392.531342,0.999998 
	C385.595795,11.569014 378.762085,22.602306 370.638123,32.585617 
	C361.194275,44.190880 351.152496,55.424858 340.421295,65.842499 
	C320.083344,85.586166 297.719696,102.780388 273.113281,117.085922 
	C252.189102,129.250717 230.417175,139.451218 207.218521,146.136642 
	C191.629333,150.629135 175.609512,153.706421 159.684921,156.936462 
	C138.244446,161.285324 116.429405,161.879669 94.719902,160.770691 
	C78.500359,159.942154 62.327747,157.410324 46.245468,154.918930 
	C32.554665,152.798035 19.022600,149.652405 4.557460,146.789337 
	C3.666690,159.747253 2.741441,173.206741 1.408096,186.833115 
	C1.000000,125.046944 1.000000,63.093887 1.000000,1.000000 
	C131.354187,1.000000 261.708435,1.000000 392.531342,0.999998 
z"/>
<path fill="#F48025" opacity="1.000000" stroke="none" 
	d="
M126.087402,695.281738 
	C117.713295,679.795715 108.998589,664.482422 101.035950,648.787659 
	C84.436882,616.069763 70.304390,582.298157 57.787594,547.785461 
	C45.349541,513.489929 35.201447,478.556335 26.163963,443.264832 
	C24.472471,436.659485 23.369572,429.903412 22.064133,422.837311 
	C23.798357,422.417786 25.463497,422.342896 27.128635,422.342865 
	C271.737335,422.337677 516.346008,422.337799 760.954712,422.341156 
	C762.286926,422.341187 763.619080,422.390228 765.408508,422.448303 
	C761.342957,441.100098 757.210388,459.826141 752.181458,478.308258 
	C747.659546,494.927002 742.848816,511.532776 736.927551,527.690552 
	C726.742126,555.484314 715.929871,583.062805 704.717773,610.460327 
	C698.482300,625.696899 691.218140,640.541077 683.842896,655.274353 
	C677.119934,668.704590 669.621338,681.746521 661.849365,695.006470 
	C572.227539,608.892395 483.221100,522.731506 393.963806,436.327789 
	C391.814606,438.304077 389.965088,439.926910 388.201660,441.638336 
	C368.718109,460.547058 349.275940,479.498444 329.768433,498.382385 
	C285.728302,541.014832 241.664108,583.622375 197.596954,626.226807 
	C173.773926,649.259094 149.924759,672.264343 126.087402,695.281738 
z"/>
<path fill="#FDFDFD" opacity="1.000000" stroke="none" 
	d="
M287.961151,181.996124 
	C302.614899,180.178635 316.792969,178.394394 330.960938,176.532837 
	C341.840210,175.103394 352.671967,173.099854 363.594269,172.303238 
	C368.706238,171.930405 374.255798,173.056793 379.119324,174.836533 
	C386.356903,177.485031 390.483459,182.160599 390.401154,191.253372 
	C389.930756,243.224579 390.172699,295.202240 390.172699,347.177704 
	C390.172699,349.004852 390.172668,350.832001 390.172668,352.591522 
	C389.711700,352.790100 389.278961,353.107056 389.151947,353.012695 
	C376.246002,343.420319 361.769867,345.579956 347.365723,347.464905 
	C328.405334,349.946075 309.492920,352.839966 290.492706,354.951843 
	C280.703186,356.039978 270.866425,355.093842 261.623901,351.026337 
	C258.964569,349.855988 257.051880,348.561310 257.061310,344.880554 
	C257.203186,289.573700 257.160461,234.266342 257.167816,178.959106 
	C257.167877,178.465134 257.258514,177.971161 257.241455,178.145752 
	C267.342194,179.431870 277.411682,180.713989 287.961151,181.996124 
M350.887543,323.032593 
	C350.789001,318.207489 350.638000,313.382690 350.606873,308.557159 
	C350.576752,303.883942 349.717834,298.797455 355.716553,296.460449 
	C351.359802,296.460449 347.003052,296.460449 341.827728,296.460449 
	C348.336304,300.256866 349.897247,306.456879 347.260986,315.383362 
	C342.761139,310.429932 337.952057,305.765656 333.917603,300.507111 
	C330.321136,295.819580 326.040222,295.561432 320.525452,296.775940 
	C327.381836,299.524994 326.878693,305.222534 326.732635,310.622986 
	C326.595795,315.684174 328.832855,321.690521 320.767090,324.259277 
	C326.124420,324.259277 330.285431,324.259277 335.806122,324.259277 
	C324.691406,319.693939 331.007507,311.417114 329.256042,305.169434 
	C330.386017,305.569305 330.992737,306.280701 331.628815,306.964783 
	C336.727020,312.447632 341.797028,317.957520 346.961578,323.377228 
	C347.981903,324.447998 349.128662,327.018402 350.887543,323.032593 
M309.967712,280.029602 
	C318.904999,280.029602 327.842285,280.029602 336.617371,280.029602 
	C336.617371,276.918488 336.617371,274.246094 336.617371,271.573700 
	C332.856873,278.302887 326.796570,279.867798 320.915924,277.154907 
	C318.787262,276.172882 319.048340,270.010742 318.218994,266.212280 
	C318.968353,265.763397 319.717743,265.314484 320.467102,264.865601 
	C322.938690,266.789551 325.410278,268.713470 327.798859,270.572815 
	C327.798859,266.951385 327.798859,263.023193 327.798859,259.391571 
	C325.142151,261.098389 322.544922,262.766998 319.381104,264.799591 
	C319.381104,260.111328 319.381104,256.870728 319.381104,253.751465 
	C325.863159,251.825455 330.424774,254.492355 334.043427,259.855316 
	C334.298523,259.489868 334.553589,259.124420 334.808655,258.758972 
	C334.664215,256.536102 334.519806,254.313202 334.349945,251.699188 
	C325.420288,251.699188 316.853027,251.699188 308.285767,251.699188 
	C307.790283,252.208710 307.294800,252.718231 306.799286,253.227737 
	C313.902954,252.239685 313.135132,256.291656 313.118988,259.839325 
	C313.098541,264.334412 313.001862,268.829590 313.027649,273.324219 
	C313.042480,275.909607 312.639038,278.019470 309.403168,278.167023 
	C309.264008,278.173401 309.179169,279.370911 309.967712,280.029602 
M298.330963,310.865479 
	C302.943054,309.354431 304.381866,313.031067 306.502747,317.049408 
	C306.502747,311.783722 306.502747,307.790833 306.502747,304.480347 
	C303.897339,306.033447 301.383026,307.532227 298.123596,309.475189 
	C298.123596,304.854797 298.123596,301.762817 298.123596,298.532654 
	C304.360687,297.075012 309.286652,298.485748 312.461792,304.854553 
	C312.786530,304.491028 313.111267,304.127533 313.436035,303.764038 
	C313.319946,301.406464 313.203857,299.048889 313.080353,296.540619 
	C304.183624,296.540619 295.666260,296.540619 287.961029,296.540619 
	C289.296906,298.402954 292.009796,300.505859 291.733826,302.087128 
	C290.449005,309.448914 296.210632,318.436737 286.754303,324.540833 
	C296.623199,324.540833 306.213501,324.540833 315.599182,324.540833 
	C315.599182,321.575073 315.599182,318.894562 315.599182,314.852844 
	C314.028900,316.916718 313.168823,317.822479 312.567474,318.875916 
	C309.764252,323.786560 305.126221,323.586731 300.716827,322.640961 
	C296.184875,321.668884 298.343994,317.528534 297.901855,314.679993 
	C297.751007,313.708069 297.904846,312.688873 298.330963,310.865479 
M325.873535,208.925476 
	C328.261108,210.656143 330.648651,212.386810 333.767853,214.647827 
	C333.447662,211.629532 333.202454,209.318283 332.957520,207.009399 
	C324.028381,207.009399 315.628784,207.009399 307.229187,207.009399 
	C311.972351,208.189972 312.246918,211.444153 312.009460,215.224472 
	C311.832764,218.038101 312.178192,220.881485 312.070709,223.703201 
	C311.907684,227.982269 313.545380,233.138260 307.206146,235.148529 
	C316.720367,235.148529 326.234619,235.148529 335.586761,235.148529 
	C335.586761,232.210083 335.586761,229.545731 335.586761,225.950989 
	C334.270996,227.357468 333.572327,227.973633 333.029877,228.705582 
	C329.830536,233.022812 325.198944,234.737885 320.554413,233.056976 
	C315.978699,231.400940 318.474060,227.385620 317.929230,224.409378 
	C317.738159,223.365448 318.097656,222.220734 318.383514,219.315353 
	C321.861450,222.035751 324.359650,223.989807 326.814117,225.909653 
	C326.814117,222.210144 326.814117,218.232712 326.814117,214.495255 
	C324.147369,216.288437 321.566498,218.023911 318.089874,220.361694 
	C318.089874,215.632980 318.089874,212.530548 318.089874,208.882172 
	C320.520691,208.882172 322.762512,208.882172 325.873535,208.925476 
M359.663086,270.905548 
	C361.792267,275.304169 360.003998,279.115570 355.513214,278.516266 
	C352.824524,278.157440 350.300323,275.702789 347.977692,273.845581 
	C346.894440,272.979401 346.465332,271.295166 345.739716,269.981750 
	C345.343231,270.105713 344.946777,270.229706 344.550293,270.353699 
	C344.550293,273.431152 344.550293,276.508636 344.550293,279.133118 
	C347.485535,279.614349 349.990448,279.894958 352.432526,280.451416 
	C358.256012,281.778259 363.725952,279.364685 365.209290,274.681091 
	C366.881042,269.402588 364.399780,265.426300 357.974182,263.113647 
	C355.945862,262.383636 353.650208,262.052094 351.949799,260.862335 
	C350.550476,259.883240 348.684326,257.340942 349.094757,256.491760 
	C349.840637,254.948532 352.232025,253.125793 353.739929,253.284821 
	C355.849945,253.507385 357.940582,255.242874 359.725769,256.712250 
	C360.777924,257.578247 361.223572,259.181091 361.941986,260.452576 
	C362.288025,260.308563 362.634094,260.164551 362.980133,260.020538 
	C362.980133,257.172699 362.980133,254.324890 362.980133,251.808609 
	C360.452820,251.459793 358.154144,251.169205 355.864166,250.821243 
	C350.091797,249.944077 345.856812,252.129150 344.708405,256.606934 
	C343.457275,261.485413 345.621735,265.065491 351.215546,267.313995 
	C353.824371,268.362671 356.451752,269.365326 359.663086,270.905548 
M279.791077,251.402298 
	C278.023071,251.487946 276.255035,251.573593 274.426636,251.662170 
	C274.426636,254.771347 274.426636,257.314178 274.426636,260.742035 
	C278.308441,257.772614 279.871399,251.733810 285.954712,254.380753 
	C285.954712,258.625153 286.126190,262.958160 285.907745,267.271423 
	C285.677002,271.827850 288.421844,277.689514 281.118378,279.631439 
	C286.362793,279.631439 291.607208,279.631439 296.628662,279.631439 
	C294.978210,277.764191 292.279633,276.129669 292.136353,274.295502 
	C291.608429,267.536224 291.926697,260.710815 291.926697,254.024506 
	C298.078613,252.444473 300.004181,257.013367 303.128113,262.001831 
	C303.128113,257.487427 303.128113,254.546371 303.128113,251.402328 
	C295.386597,251.402328 288.060760,251.402328 279.791077,251.402298 
M351.951385,209.941940 
	C351.959503,214.436234 352.024963,218.931351 351.959473,223.424561 
	C351.895355,227.825745 353.833038,233.120010 347.224640,234.645050 
	C352.410797,234.645050 357.596924,234.645050 362.190735,234.645050 
	C360.720703,232.909698 358.216949,231.321609 358.092987,229.565552 
	C357.615570,222.801544 357.899384,215.983795 357.899384,208.260010 
	C360.585114,209.194199 362.970642,209.502411 364.650024,210.756363 
	C366.294159,211.984039 367.218903,214.175156 369.202698,217.002853 
	C369.202698,212.757507 369.202698,209.906281 369.202698,207.140961 
	C359.435150,207.140961 350.024139,207.140961 340.708893,207.140961 
	C340.708893,210.062408 340.708893,212.616898 340.708893,216.480347 
	C344.074188,212.006592 346.235016,207.800095 351.951385,209.941940 
M282.121002,225.439713 
	C283.734039,229.075928 285.347107,232.712143 287.500824,237.567169 
	C290.666870,230.597427 293.112274,225.015640 295.729279,219.515457 
	C297.841431,215.076309 298.557465,209.650558 303.903778,207.185333 
	C299.988007,207.185333 296.072235,207.185333 293.118195,207.185333 
	C293.979858,209.268250 295.922485,211.613083 295.447052,213.259781 
	C294.068420,218.034836 291.718994,222.529602 289.337036,228.101501 
	C286.553375,221.302338 284.203918,215.563721 281.884460,209.898422 
	C283.749542,208.921005 284.954102,208.289734 286.975403,207.230438 
	C281.027710,207.230438 276.109711,207.230438 272.042480,207.230438 
	C274.014343,210.142944 276.209442,213.007736 277.980316,216.114365 
	C279.532990,218.838226 280.609558,221.833481 282.121002,225.439713 
z"/>
<path fill="#FBFBFB" opacity="1.000000" stroke="none" 
	d="
M523.831299,351.982819 
	C509.764954,356.793121 495.840698,355.406311 481.945465,353.531158 
	C464.808411,351.218475 447.727966,348.472351 430.572937,346.311615 
	C419.129028,344.870209 407.941925,345.770599 397.477692,354.027557 
	C397.477692,351.450745 397.477692,349.877441 397.477692,348.304169 
	C397.477692,294.823517 397.519257,241.342758 397.388458,187.862427 
	C397.379303,184.114685 398.658997,181.561783 401.313568,179.264832 
	C409.397705,172.269791 418.926331,171.083038 428.991089,172.512695 
	C448.748566,175.319138 468.470795,178.373734 488.228149,181.181107 
	C502.427155,183.198654 516.366821,181.907120 530.522278,176.669708 
	C530.522278,178.978241 530.522217,180.735458 530.522217,182.492691 
	C530.522217,235.640137 530.436829,288.787933 530.654846,341.934479 
	C530.676575,347.230438 529.379822,350.507996 523.831299,351.982819 
M486.081390,318.815369 
	C486.081390,313.079712 486.081390,307.344055 486.081390,301.608398 
	C486.293121,301.536499 486.504852,301.464600 486.716583,301.392700 
	C490.252167,308.994843 493.787750,316.596985 497.767914,325.155121 
	C501.621399,316.684967 504.914520,309.446503 508.207672,302.208008 
	C509.117157,307.020416 509.075592,311.599091 509.130829,316.176636 
	C509.171875,319.576416 509.889923,323.266907 504.972229,324.510315 
	C509.915710,324.510315 514.859192,324.510315 519.802673,324.510315 
	C514.770752,323.225189 514.892090,319.528442 515.014282,315.736237 
	C515.116089,312.577515 515.175781,309.405060 515.000122,306.252869 
	C514.773071,302.179138 514.635315,298.289825 520.044128,296.850281 
	C518.203857,296.312378 516.628113,296.387756 515.128418,296.085754 
	C509.966339,295.046265 507.229645,297.410217 505.478394,302.087769 
	C503.823273,306.508484 501.588837,310.712341 499.363098,315.546143 
	C496.770538,309.747192 494.481567,304.432678 491.994720,299.212372 
	C491.428497,298.023834 490.253021,296.388062 489.228271,296.288147 
	C485.574982,295.931976 481.865814,296.148926 477.371918,296.148926 
	C479.883026,298.216461 482.946045,299.656555 482.847656,300.831879 
	C482.178436,308.824036 487.873047,318.163757 477.641846,324.547302 
	C482.635406,324.547302 486.889648,324.547302 491.143890,324.547302 
	C490.466400,325.052979 489.788879,325.558655 489.111389,326.064331 
	C488.156464,323.932556 487.201538,321.800781 486.081390,318.815369 
M505.565552,278.122498 
	C505.043213,278.528595 504.520844,278.934662 503.658539,279.605011 
	C509.168915,279.605011 514.061096,279.605011 517.524841,279.605011 
	C516.409607,276.911530 514.787842,274.332825 514.336548,271.563416 
	C513.781250,268.156036 514.363342,264.580170 514.158813,261.094421 
	C513.922913,257.071930 514.301758,253.559616 519.733215,252.376846 
	C509.714752,249.941452 508.185516,250.569931 504.308838,258.544708 
	C502.447021,262.374695 500.778015,266.298370 498.739655,270.802795 
	C496.098907,264.849182 493.848145,259.556824 491.376434,254.369751 
	C490.823059,253.208466 489.566711,251.690475 488.510956,251.586517 
	C484.968506,251.237747 481.370422,251.454025 476.545837,251.454025 
	C485.096008,256.672943 485.122559,273.926971 477.297913,279.582306 
	C482.127228,279.582306 486.394531,279.582306 491.707214,279.582306 
	C485.148621,276.311920 482.952515,265.752594 485.852051,255.910461 
	C489.455597,263.754974 493.050262,271.580200 497.111938,280.421997 
	C501.116028,271.614471 504.497437,264.176605 507.878845,256.738739 
	C508.788177,262.723114 508.931335,268.463989 508.679718,274.187561 
	C508.622375,275.492340 507.200653,276.737122 505.565552,278.122498 
M424.327576,231.860886 
	C423.756409,226.411118 423.185242,220.961349 422.614044,215.511581 
	C422.999634,215.455963 423.385193,215.400345 423.770752,215.344742 
	C430.419586,222.439835 437.068390,229.534927 443.717224,236.630020 
	C444.871918,230.129959 444.813202,224.648224 444.889954,219.168396 
	C444.954559,214.557602 443.405518,209.237259 449.710358,207.014099 
	C445.410126,207.014099 441.109894,207.014099 435.931335,207.014099 
	C442.536224,210.740952 444.361542,217.931076 441.447784,225.859009 
	C436.938782,220.939880 432.036407,216.357925 428.091431,211.062698 
	C424.466125,206.196609 420.029724,206.543228 414.507172,207.321686 
	C421.589844,209.708694 421.285156,215.215073 420.720001,220.513092 
	C420.195435,225.429901 423.826813,231.846008 416.217743,234.865280 
	C420.304382,234.865280 424.390991,234.865280 428.477631,234.865280 
	C428.544128,234.640747 428.610626,234.416214 428.677124,234.191681 
	C427.436432,233.587280 426.195770,232.982880 424.327576,231.860886 
M468.667786,236.112015 
	C477.009430,235.719101 482.558472,231.293243 483.958099,223.916656 
	C485.298828,216.850342 481.754822,209.680313 475.423889,207.098724 
	C470.113739,204.933411 464.979492,205.435837 460.484924,209.164917 
	C455.526917,213.278397 454.056183,218.733566 455.454010,224.850754 
	C456.939697,231.352325 461.225372,235.054153 468.667786,236.112015 
M427.493469,251.410049 
	C424.666168,251.410034 421.838898,251.409683 419.011597,251.410065 
	C411.306854,251.411087 410.575714,252.447296 413.121063,260.342010 
	C416.188660,257.332153 417.919373,252.076660 423.958740,254.214233 
	C423.958740,259.173370 423.987946,264.313782 423.949402,269.453705 
	C423.919067,273.502136 425.462280,278.378967 419.062805,279.506927 
	C424.320251,279.506927 429.577698,279.506927 434.951050,279.506927 
	C433.048248,277.830353 430.246063,276.542603 430.147858,275.074066 
	C429.676483,268.025085 429.936127,260.927216 429.936127,254.005875 
	C436.169250,252.428207 437.906799,257.291443 441.199982,261.818939 
	C441.199982,257.452454 441.199982,254.617065 441.199982,251.410080 
	C436.743561,251.410080 432.613251,251.410080 427.493469,251.410049 
M423.019592,320.912048 
	C421.381409,321.935455 419.743256,322.958862 417.566559,324.318726 
	C423.466370,324.318726 428.754425,324.318726 433.742523,324.318726 
	C432.069977,322.459900 429.405182,320.878113 429.275665,319.110565 
	C428.770996,312.221619 429.069855,305.273834 429.069855,298.326019 
	C433.909943,298.629486 433.909943,298.629486 440.427795,305.599274 
	C440.427795,302.196747 440.427795,299.275879 440.427795,296.344666 
	C430.745911,296.344666 421.464661,296.344666 411.933228,296.344666 
	C411.933228,299.347290 411.933228,302.116486 411.933228,305.883881 
	C415.424683,302.017548 417.163849,296.934143 423.108795,299.048706 
	C423.108795,306.025299 423.108795,313.015320 423.019592,320.912048 
M461.729584,270.210968 
	C462.615997,272.478577 463.502411,274.746185 464.366455,276.956543 
	C462.592407,277.967041 461.343140,278.678650 459.375336,279.799530 
	C465.215240,279.799530 470.034424,279.799530 473.828339,279.799530 
	C471.899384,276.622833 469.613861,273.458466 467.961517,269.992249 
	C465.687653,265.222198 464.003143,260.174103 461.831360,255.350861 
	C461.090790,253.706192 459.641083,252.380829 458.515442,250.909592 
	C457.494873,252.333450 456.364319,253.691910 455.472046,255.192062 
	C450.726318,263.171051 450.315491,273.487946 441.933563,279.503113 
	C446.145691,279.503113 450.019562,279.503113 452.936157,279.503113 
	C452.009369,277.596954 450.399536,275.802063 450.449463,274.054565 
	C450.537476,270.973450 452.301666,268.861450 456.012146,269.523682 
	C457.627472,269.811981 459.312439,269.709747 461.729584,270.210968 
M449.645203,305.954987 
	C452.511871,312.557587 455.378540,319.160187 458.865753,327.191956 
	C462.348175,319.440216 465.031311,312.940796 468.175293,306.672485 
	C469.982391,303.069641 472.536163,299.841278 474.581146,296.708832 
	C471.503174,296.708832 467.403076,296.708832 464.260254,296.708832 
	C465.253540,298.840729 467.238403,301.044434 466.800934,302.539093 
	C465.360687,307.459930 463.043121,312.123962 460.708954,317.736755 
	C457.941254,310.877106 455.618805,305.121094 453.216370,299.166748 
	C455.285583,298.328796 456.623993,297.786804 457.962402,297.244812 
	C457.887085,297.004059 457.811768,296.763306 457.736450,296.522552 
	C452.656464,296.522552 447.576508,296.522552 443.285156,296.522552 
	C445.247894,299.412933 447.250061,302.361389 449.645203,305.954987 
M502.224030,207.999863 
	C497.259644,207.459106 492.295227,206.918350 487.330841,206.377594 
	C496.746368,214.765961 497.194000,227.109467 503.904572,237.011093 
	C505.178131,234.168472 505.976166,231.870041 507.174957,229.804123 
	C511.518494,222.318634 512.294739,212.830017 520.149353,207.316010 
	C515.955078,207.316010 512.060608,207.316010 508.166168,207.316010 
	C513.365723,208.847092 512.372192,212.086548 510.925629,215.454666 
	C509.201355,219.469345 507.440186,223.468185 505.462616,228.007309 
	C503.146667,222.506805 501.134125,217.602432 499.015717,212.744247 
	C497.833710,210.033539 498.617554,208.657822 502.224030,207.999863 
z"/>
<path fill="#FCFCFC" opacity="1.000000" stroke="none" 
	d="
M496.148865,362.131653 
	C506.316437,361.069641 516.029480,360.179962 525.667664,358.776001 
	C528.322571,358.389252 530.919556,356.719788 533.247498,355.189362 
	C536.422363,353.102173 537.954834,350.283447 537.939270,346.034149 
	C537.760864,297.379639 537.825745,248.724213 537.825745,200.069031 
	C537.825745,198.256714 537.825745,196.444397 537.825745,194.179825 
	C543.348083,195.354889 548.452332,196.440994 553.757324,197.569809 
	C553.757324,255.024918 553.757324,312.289124 553.757324,369.914764 
	C506.791260,377.942627 459.809113,374.524628 412.174316,368.645966 
	C412.174316,370.602570 412.177460,372.184753 412.173828,373.766907 
	C412.157013,381.089935 412.225311,381.829010 404.913269,382.511597 
	C397.082397,383.242584 389.099304,382.506989 381.191711,382.187042 
	C376.841095,382.011017 374.663818,379.741821 375.435120,375.087311 
	C375.730408,373.305298 375.483185,371.433411 375.483185,368.705933 
	C328.383606,374.356995 281.400970,378.027710 233.825684,369.876282 
	C233.825684,368.356537 233.825699,366.753052 233.825699,365.149567 
	C233.825699,310.995697 233.865219,256.841736 233.740479,202.688141 
	C233.731781,198.909500 234.349472,196.893997 238.563995,196.522476 
	C242.292480,196.193787 245.944290,194.995499 250.005081,194.098251 
	C250.005081,196.267136 250.005096,198.084015 250.005096,199.900894 
	C250.005112,248.056183 250.148392,296.212280 249.868484,344.365967 
	C249.820053,352.699005 252.572876,355.071777 259.140137,357.761200 
	C268.292114,361.509155 278.108795,363.304932 287.982666,362.171387 
	C310.785187,359.553619 333.524567,356.388519 356.298096,353.513214 
	C364.462830,352.482361 372.644684,352.266266 380.295349,355.915710 
	C383.088013,357.247833 385.719421,359.160278 388.001312,361.266357 
	C391.776398,364.750610 396.172577,364.904327 399.697327,361.279816 
	C408.465332,352.263611 419.558105,352.085327 430.853424,353.504822 
	C452.476624,356.222321 474.063904,359.225433 496.148865,362.131653 
z"/>
<path fill="#F9F9F9" opacity="1.000000" stroke="none" 
	d="
M210.818161,246.942200 
	C210.818130,237.521576 210.818130,228.594284 210.818130,219.411133 
	C216.250031,219.411133 221.292923,219.411133 226.593536,219.411133 
	C226.593536,229.985321 226.593536,240.341797 226.593536,251.178131 
	C221.979874,251.178131 217.528046,251.374985 213.123016,251.008881 
	C212.261703,250.937302 211.581772,248.683060 210.818161,246.942200 
z"/>
<path fill="#FDFDFD" opacity="1.000000" stroke="none" 
	d="
M565.182373,333.840118 
	C562.139954,334.192230 560.859009,333.554840 560.925110,330.481384 
	C561.124451,321.210785 560.997070,311.933167 560.997070,302.327881 
	C566.171509,302.327881 571.229187,302.327881 576.646851,302.327881 
	C576.646851,312.419220 576.646851,322.774506 576.646851,333.840149 
	C573.126709,333.840149 569.391785,333.840149 565.182373,333.840118 
z"/>
<path fill="#F9F9F9" opacity="1.000000" stroke="none" 
	d="
M210.818115,313.013550 
	C210.818115,309.203339 210.818115,305.891296 210.818115,302.285400 
	C216.066116,302.285400 221.142136,302.285400 226.537292,302.285400 
	C226.537292,312.587952 226.537292,322.950409 226.537292,333.582764 
	C221.478561,333.582764 216.556168,333.582764 210.818115,333.582764 
	C210.818115,326.967010 210.818115,320.239349 210.818115,313.013550 
z"/>
<path fill="#FDFDFD" opacity="1.000000" stroke="none" 
	d="
M577.003052,234.003876 
	C577.003052,239.946350 577.003052,245.389832 577.003052,250.996613 
	C571.614746,250.996613 566.668701,250.996613 561.359131,250.996613 
	C561.359131,240.590652 561.359131,230.089600 561.359131,219.372421 
	C566.381348,219.372421 571.313354,219.372421 577.003052,219.372421 
	C577.003052,224.030762 577.003052,228.767822 577.003052,234.003876 
z"/>
<path fill="#010000" opacity="1.000000" stroke="none" 
	d="
M126.113602,695.621460 
	C149.924759,672.264343 173.773926,649.259094 197.596954,626.226807 
	C241.664108,583.622375 285.728302,541.014832 329.768433,498.382385 
	C349.275940,479.498444 368.718109,460.547058 388.201660,441.638336 
	C389.965088,439.926910 391.814606,438.304077 393.963806,436.327789 
	C483.221100,522.731506 572.227539,608.892395 661.540588,695.221802 
	C636.663086,740.189392 607.756836,782.469910 575.459412,822.811279 
	C567.990417,816.057861 560.728943,809.212830 553.625671,802.207214 
	C519.834839,768.881287 486.093903,735.504578 452.321045,702.160400 
	C434.547058,684.611938 416.746918,667.090027 398.949066,649.565796 
	C397.416351,648.056641 395.812256,646.619995 393.836945,644.771118 
	C386.501373,651.960205 379.274261,659.001038 372.092651,666.087952 
	C320.533203,716.967468 268.985992,767.859497 217.414337,818.726624 
	C216.005493,820.116211 214.365158,821.271179 212.463745,822.546021 
	C201.089478,807.986755 189.485779,793.824951 179.215988,778.754089 
	C162.849701,754.736572 147.346695,730.129944 131.548462,705.727173 
	C129.530930,702.610779 127.932426,699.223145 126.113602,695.621460 
z"/>
<path fill="#181818" opacity="1.000000" stroke="none" 
	d="
M350.879883,323.478027 
	C349.128662,327.018402 347.981903,324.447998 346.961578,323.377228 
	C341.797028,317.957520 336.727020,312.447632 331.628815,306.964783 
	C330.992737,306.280701 330.386017,305.569305 329.256042,305.169434 
	C331.007507,311.417114 324.691406,319.693939 335.806122,324.259277 
	C330.285431,324.259277 326.124420,324.259277 320.767090,324.259277 
	C328.832855,321.690521 326.595795,315.684174 326.732635,310.622986 
	C326.878693,305.222534 327.381836,299.524994 320.525452,296.775940 
	C326.040222,295.561432 330.321136,295.819580 333.917603,300.507111 
	C337.952057,305.765656 342.761139,310.429932 347.260986,315.383362 
	C349.897247,306.456879 348.336304,300.256866 341.827728,296.460449 
	C347.003052,296.460449 351.359802,296.460449 355.716553,296.460449 
	C349.717834,298.797455 350.576752,303.883942 350.606873,308.557159 
	C350.638000,313.382690 350.789001,318.207489 350.879883,323.478027 
z"/>
<path fill="#121212" opacity="1.000000" stroke="none" 
	d="
M309.518372,280.021545 
	C309.179169,279.370911 309.264008,278.173401 309.403168,278.167023 
	C312.639038,278.019470 313.042480,275.909607 313.027649,273.324219 
	C313.001862,268.829590 313.098541,264.334412 313.118988,259.839325 
	C313.135132,256.291656 313.902954,252.239685 306.799286,253.227737 
	C307.294800,252.718231 307.790283,252.208710 308.285767,251.699188 
	C316.853027,251.699188 325.420288,251.699188 334.349945,251.699188 
	C334.519806,254.313202 334.664215,256.536102 334.808655,258.758972 
	C334.553589,259.124420 334.298523,259.489868 334.043427,259.855316 
	C330.424774,254.492355 325.863159,251.825455 319.381104,253.751465 
	C319.381104,256.870728 319.381104,260.111328 319.381104,264.799591 
	C322.544922,262.766998 325.142151,261.098389 327.798859,259.391571 
	C327.798859,263.023193 327.798859,266.951385 327.798859,270.572815 
	C325.410278,268.713470 322.938690,266.789551 320.467102,264.865601 
	C319.717743,265.314484 318.968353,265.763397 318.218994,266.212280 
	C319.048340,270.010742 318.787262,276.172882 320.915924,277.154907 
	C326.796570,279.867798 332.856873,278.302887 336.617371,271.573700 
	C336.617371,274.246094 336.617371,276.918488 336.617371,280.029602 
	C327.842285,280.029602 318.904999,280.029602 309.518372,280.021545 
z"/>
<path fill="#121212" opacity="1.000000" stroke="none" 
	d="
M298.125214,311.278381 
	C297.904846,312.688873 297.751007,313.708069 297.901855,314.679993 
	C298.343994,317.528534 296.184875,321.668884 300.716827,322.640961 
	C305.126221,323.586731 309.764252,323.786560 312.567474,318.875916 
	C313.168823,317.822479 314.028900,316.916718 315.599182,314.852844 
	C315.599182,318.894562 315.599182,321.575073 315.599182,324.540833 
	C306.213501,324.540833 296.623199,324.540833 286.754303,324.540833 
	C296.210632,318.436737 290.449005,309.448914 291.733826,302.087128 
	C292.009796,300.505859 289.296906,298.402954 287.961029,296.540619 
	C295.666260,296.540619 304.183624,296.540619 313.080353,296.540619 
	C313.203857,299.048889 313.319946,301.406464 313.436035,303.764038 
	C313.111267,304.127533 312.786530,304.491028 312.461792,304.854553 
	C309.286652,298.485748 304.360687,297.075012 298.123596,298.532654 
	C298.123596,301.762817 298.123596,304.854797 298.123596,309.475189 
	C301.383026,307.532227 303.897339,306.033447 306.502747,304.480347 
	C306.502747,307.790833 306.502747,311.783722 306.502747,317.049408 
	C304.381866,313.031067 302.943054,309.354431 298.125214,311.278381 
z"/>
<path fill="#141414" opacity="1.000000" stroke="none" 
	d="
M325.438904,208.903824 
	C322.762512,208.882172 320.520691,208.882172 318.089874,208.882172 
	C318.089874,212.530548 318.089874,215.632980 318.089874,220.361694 
	C321.566498,218.023911 324.147369,216.288437 326.814117,214.495255 
	C326.814117,218.232712 326.814117,222.210144 326.814117,225.909653 
	C324.359650,223.989807 321.861450,222.035751 318.383514,219.315353 
	C318.097656,222.220734 317.738159,223.365448 317.929230,224.409378 
	C318.474060,227.385620 315.978699,231.400940 320.554413,233.056976 
	C325.198944,234.737885 329.830536,233.022812 333.029877,228.705582 
	C333.572327,227.973633 334.270996,227.357468 335.586761,225.950989 
	C335.586761,229.545731 335.586761,232.210083 335.586761,235.148529 
	C326.234619,235.148529 316.720367,235.148529 307.206146,235.148529 
	C313.545380,233.138260 311.907684,227.982269 312.070709,223.703201 
	C312.178192,220.881485 311.832764,218.038101 312.009460,215.224472 
	C312.246918,211.444153 311.972351,208.189972 307.229187,207.009399 
	C315.628784,207.009399 324.028381,207.009399 332.957520,207.009399 
	C333.202454,209.318283 333.447662,211.629532 333.767853,214.647827 
	C330.648651,212.386810 328.261108,210.656143 325.438904,208.903824 
z"/>
<path fill="#141414" opacity="1.000000" stroke="none" 
	d="
M359.366882,270.647186 
	C356.451752,269.365326 353.824371,268.362671 351.215546,267.313995 
	C345.621735,265.065491 343.457275,261.485413 344.708405,256.606934 
	C345.856812,252.129150 350.091797,249.944077 355.864166,250.821243 
	C358.154144,251.169205 360.452820,251.459793 362.980133,251.808609 
	C362.980133,254.324890 362.980133,257.172699 362.980133,260.020538 
	C362.634094,260.164551 362.288025,260.308563 361.941986,260.452576 
	C361.223572,259.181091 360.777924,257.578247 359.725769,256.712250 
	C357.940582,255.242874 355.849945,253.507385 353.739929,253.284821 
	C352.232025,253.125793 349.840637,254.948532 349.094757,256.491760 
	C348.684326,257.340942 350.550476,259.883240 351.949799,260.862335 
	C353.650208,262.052094 355.945862,262.383636 357.974182,263.113647 
	C364.399780,265.426300 366.881042,269.402588 365.209290,274.681091 
	C363.725952,279.364685 358.256012,281.778259 352.432526,280.451416 
	C349.990448,279.894958 347.485535,279.614349 344.550293,279.133118 
	C344.550293,276.508636 344.550293,273.431152 344.550293,270.353699 
	C344.946777,270.229706 345.343231,270.105713 345.739716,269.981750 
	C346.465332,271.295166 346.894440,272.979401 347.977692,273.845581 
	C350.300323,275.702789 352.824524,278.157440 355.513214,278.516266 
	C360.003998,279.115570 361.792267,275.304169 359.366882,270.647186 
z"/>
<path fill="#191919" opacity="1.000000" stroke="none" 
	d="
M280.263000,251.402313 
	C288.060760,251.402328 295.386597,251.402328 303.128113,251.402328 
	C303.128113,254.546371 303.128113,257.487427 303.128113,262.001831 
	C300.004181,257.013367 298.078613,252.444473 291.926697,254.024506 
	C291.926697,260.710815 291.608429,267.536224 292.136353,274.295502 
	C292.279633,276.129669 294.978210,277.764191 296.628662,279.631439 
	C291.607208,279.631439 286.362793,279.631439 281.118378,279.631439 
	C288.421844,277.689514 285.677002,271.827850 285.907745,267.271423 
	C286.126190,262.958160 285.954712,258.625153 285.954712,254.380753 
	C279.871399,251.733810 278.308441,257.772614 274.426636,260.742035 
	C274.426636,257.314178 274.426636,254.771347 274.426636,251.662170 
	C276.255035,251.573593 278.023071,251.487946 280.263000,251.402313 
z"/>
<path fill="#0F0F0F" opacity="1.000000" stroke="none" 
	d="
M351.783386,209.524078 
	C346.235016,207.800095 344.074188,212.006592 340.708893,216.480347 
	C340.708893,212.616898 340.708893,210.062408 340.708893,207.140961 
	C350.024139,207.140961 359.435150,207.140961 369.202698,207.140961 
	C369.202698,209.906281 369.202698,212.757507 369.202698,217.002853 
	C367.218903,214.175156 366.294159,211.984039 364.650024,210.756363 
	C362.970642,209.502411 360.585114,209.194199 357.899384,208.260010 
	C357.899384,215.983795 357.615570,222.801544 358.092987,229.565552 
	C358.216949,231.321609 360.720703,232.909698 362.190735,234.645050 
	C357.596924,234.645050 352.410797,234.645050 347.224640,234.645050 
	C353.833038,233.120010 351.895355,227.825745 351.959473,223.424561 
	C352.024963,218.931351 351.959503,214.436234 351.783386,209.524078 
z"/>
<path fill="#101010" opacity="1.000000" stroke="none" 
	d="
M282.008728,225.074280 
	C280.609558,221.833481 279.532990,218.838226 277.980316,216.114365 
	C276.209442,213.007736 274.014343,210.142944 272.042480,207.230438 
	C276.109711,207.230438 281.027710,207.230438 286.975403,207.230438 
	C284.954102,208.289734 283.749542,208.921005 281.884460,209.898422 
	C284.203918,215.563721 286.553375,221.302338 289.337036,228.101501 
	C291.718994,222.529602 294.068420,218.034836 295.447052,213.259781 
	C295.922485,211.613083 293.979858,209.268250 293.118195,207.185333 
	C296.072235,207.185333 299.988007,207.185333 303.903778,207.185333 
	C298.557465,209.650558 297.841431,215.076309 295.729279,219.515457 
	C293.112274,225.015640 290.666870,230.597427 287.500824,237.567169 
	C285.347107,232.712143 283.734039,229.075928 282.008728,225.074280 
z"/>
<path fill="#161616" opacity="1.000000" stroke="none" 
	d="
M486.164001,319.242188 
	C487.201538,321.800781 488.156464,323.932556 489.111389,326.064331 
	C489.788879,325.558655 490.466400,325.052979 491.143890,324.547302 
	C486.889648,324.547302 482.635406,324.547302 477.641846,324.547302 
	C487.873047,318.163757 482.178436,308.824036 482.847656,300.831879 
	C482.946045,299.656555 479.883026,298.216461 477.371918,296.148926 
	C481.865814,296.148926 485.574982,295.931976 489.228271,296.288147 
	C490.253021,296.388062 491.428497,298.023834 491.994720,299.212372 
	C494.481567,304.432678 496.770538,309.747192 499.363098,315.546143 
	C501.588837,310.712341 503.823273,306.508484 505.478394,302.087769 
	C507.229645,297.410217 509.966339,295.046265 515.128418,296.085754 
	C516.628113,296.387756 518.203857,296.312378 520.044128,296.850281 
	C514.635315,298.289825 514.773071,302.179138 515.000122,306.252869 
	C515.175781,309.405060 515.116089,312.577515 515.014282,315.736237 
	C514.892090,319.528442 514.770752,323.225189 519.802673,324.510315 
	C514.859192,324.510315 509.915710,324.510315 504.972229,324.510315 
	C509.889923,323.266907 509.171875,319.576416 509.130829,316.176636 
	C509.075592,311.599091 509.117157,307.020416 508.207672,302.208008 
	C504.914520,309.446503 501.621399,316.684967 497.767914,325.155121 
	C493.787750,316.596985 490.252167,308.994843 486.716583,301.392700 
	C486.504852,301.464600 486.293121,301.536499 486.081390,301.608398 
	C486.081390,307.344055 486.081390,313.079712 486.164001,319.242188 
z"/>
<path fill="#111111" opacity="1.000000" stroke="none" 
	d="
M505.986206,278.066010 
	C507.200653,276.737122 508.622375,275.492340 508.679718,274.187561 
	C508.931335,268.463989 508.788177,262.723114 507.878845,256.738739 
	C504.497437,264.176605 501.116028,271.614471 497.111938,280.421997 
	C493.050262,271.580200 489.455597,263.754974 485.852051,255.910461 
	C482.952515,265.752594 485.148621,276.311920 491.707214,279.582306 
	C486.394531,279.582306 482.127228,279.582306 477.297913,279.582306 
	C485.122559,273.926971 485.096008,256.672943 476.545837,251.454025 
	C481.370422,251.454025 484.968506,251.237747 488.510956,251.586517 
	C489.566711,251.690475 490.823059,253.208466 491.376434,254.369751 
	C493.848145,259.556824 496.098907,264.849182 498.739655,270.802795 
	C500.778015,266.298370 502.447021,262.374695 504.308838,258.544708 
	C508.185516,250.569931 509.714752,249.941452 519.733215,252.376846 
	C514.301758,253.559616 513.922913,257.071930 514.158813,261.094421 
	C514.363342,264.580170 513.781250,268.156036 514.336548,271.563416 
	C514.787842,274.332825 516.409607,276.911530 517.524841,279.605011 
	C514.061096,279.605011 509.168915,279.605011 503.658539,279.605011 
	C504.520844,278.934662 505.043213,278.528595 505.986206,278.066010 
z"/>
<path fill="#121212" opacity="1.000000" stroke="none" 
	d="
M424.641327,232.119690 
	C426.195770,232.982880 427.436432,233.587280 428.677124,234.191681 
	C428.610626,234.416214 428.544128,234.640747 428.477631,234.865280 
	C424.390991,234.865280 420.304382,234.865280 416.217743,234.865280 
	C423.826813,231.846008 420.195435,225.429901 420.720001,220.513092 
	C421.285156,215.215073 421.589844,209.708694 414.507172,207.321686 
	C420.029724,206.543228 424.466125,206.196609 428.091431,211.062698 
	C432.036407,216.357925 436.938782,220.939880 441.447784,225.859009 
	C444.361542,217.931076 442.536224,210.740952 435.931335,207.014099 
	C441.109894,207.014099 445.410126,207.014099 449.710358,207.014099 
	C443.405518,209.237259 444.954559,214.557602 444.889954,219.168396 
	C444.813202,224.648224 444.871918,230.129959 443.717224,236.630020 
	C437.068390,229.534927 430.419586,222.439835 423.770752,215.344742 
	C423.385193,215.400345 422.999634,215.455963 422.614044,215.511581 
	C423.185242,220.961349 423.756409,226.411118 424.641327,232.119690 
z"/>
<path fill="#101010" opacity="1.000000" stroke="none" 
	d="
M468.249207,236.078156 
	C461.225372,235.054153 456.939697,231.352325 455.454010,224.850754 
	C454.056183,218.733566 455.526917,213.278397 460.484924,209.164917 
	C464.979492,205.435837 470.113739,204.933411 475.423889,207.098724 
	C481.754822,209.680313 485.298828,216.850342 483.958099,223.916656 
	C482.558472,231.293243 477.009430,235.719101 468.249207,236.078156 
M462.158752,215.315872 
	C462.349731,219.563950 462.113678,223.889389 462.864960,228.035950 
	C463.481812,231.440598 465.859009,234.028580 469.831604,233.930756 
	C473.851746,233.831757 475.850403,230.904175 476.526245,227.612122 
	C477.244293,224.114456 477.235748,220.375854 476.954346,216.788757 
	C476.625366,212.594742 474.820160,208.850571 470.152252,208.164062 
	C465.611176,207.496201 463.924713,211.067276 462.158752,215.315872 
z"/>
<path fill="#191919" opacity="1.000000" stroke="none" 
	d="
M427.988220,251.410065 
	C432.613251,251.410080 436.743561,251.410080 441.199982,251.410080 
	C441.199982,254.617065 441.199982,257.452454 441.199982,261.818939 
	C437.906799,257.291443 436.169250,252.428207 429.936127,254.005875 
	C429.936127,260.927216 429.676483,268.025085 430.147858,275.074066 
	C430.246063,276.542603 433.048248,277.830353 434.951050,279.506927 
	C429.577698,279.506927 424.320251,279.506927 419.062805,279.506927 
	C425.462280,278.378967 423.919067,273.502136 423.949402,269.453705 
	C423.987946,264.313782 423.958740,259.173370 423.958740,254.214233 
	C417.919373,252.076660 416.188660,257.332153 413.121063,260.342010 
	C410.575714,252.447296 411.306854,251.411087 419.011597,251.410065 
	C421.838898,251.409683 424.666168,251.410034 427.988220,251.410065 
z"/>
<path fill="#161616" opacity="1.000000" stroke="none" 
	d="
M423.064209,320.458679 
	C423.108795,313.015320 423.108795,306.025299 423.108795,299.048706 
	C417.163849,296.934143 415.424683,302.017548 411.933228,305.883881 
	C411.933228,302.116486 411.933228,299.347290 411.933228,296.344666 
	C421.464661,296.344666 430.745911,296.344666 440.427795,296.344666 
	C440.427795,299.275879 440.427795,302.196747 440.427795,305.599274 
	C433.909943,298.629486 433.909943,298.629486 429.069855,298.326019 
	C429.069855,305.273834 428.770996,312.221619 429.275665,319.110565 
	C429.405182,320.878113 432.069977,322.459900 433.742523,324.318726 
	C428.754425,324.318726 423.466370,324.318726 417.566559,324.318726 
	C419.743256,322.958862 421.381409,321.935455 423.064209,320.458679 
z"/>
<path fill="#121212" opacity="1.000000" stroke="none" 
	d="
M461.347687,269.997925 
	C459.312439,269.709747 457.627472,269.811981 456.012146,269.523682 
	C452.301666,268.861450 450.537476,270.973450 450.449463,274.054565 
	C450.399536,275.802063 452.009369,277.596954 452.936157,279.503113 
	C450.019562,279.503113 446.145691,279.503113 441.933563,279.503113 
	C450.315491,273.487946 450.726318,263.171051 455.472046,255.192062 
	C456.364319,253.691910 457.494873,252.333450 458.515442,250.909576 
	C459.641083,252.380829 461.090790,253.706192 461.831360,255.350861 
	C464.003143,260.174103 465.687653,265.222198 467.961517,269.992249 
	C469.613861,273.458466 471.899384,276.622833 473.828339,279.799530 
	C470.034424,279.799530 465.215240,279.799530 459.375336,279.799530 
	C461.343140,278.678650 462.592407,277.967041 464.366455,276.956543 
	C463.502411,274.746185 462.615997,272.478577 461.347687,269.997925 
M458.331421,261.518433 
	C457.842651,260.500977 457.353912,259.483490 456.612366,257.939850 
	C455.261658,261.223328 454.132568,263.968079 452.972656,266.787659 
	C455.693848,266.787659 457.866882,266.787659 460.327728,266.787659 
	C459.680450,264.962067 459.189301,263.576782 458.331421,261.518433 
z"/>
<path fill="#151515" opacity="1.000000" stroke="none" 
	d="
M449.448700,305.632416 
	C447.250061,302.361389 445.247894,299.412933 443.285156,296.522552 
	C447.576508,296.522552 452.656464,296.522552 457.736450,296.522552 
	C457.811768,296.763306 457.887085,297.004059 457.962402,297.244812 
	C456.623993,297.786804 455.285583,298.328796 453.216370,299.166748 
	C455.618805,305.121094 457.941254,310.877106 460.708954,317.736755 
	C463.043121,312.123962 465.360687,307.459930 466.800934,302.539093 
	C467.238403,301.044434 465.253540,298.840729 464.260254,296.708832 
	C467.403076,296.708832 471.503174,296.708832 474.581146,296.708832 
	C472.536163,299.841278 469.982391,303.069641 468.175293,306.672485 
	C465.031311,312.940796 462.348175,319.440216 458.865753,327.191956 
	C455.378540,319.160187 452.511871,312.557587 449.448700,305.632416 
z"/>
<path fill="#121212" opacity="1.000000" stroke="none" 
	d="
M501.884644,208.230103 
	C498.617554,208.657822 497.833710,210.033539 499.015717,212.744247 
	C501.134125,217.602432 503.146667,222.506805 505.462616,228.007309 
	C507.440186,223.468185 509.201355,219.469345 510.925629,215.454666 
	C512.372192,212.086548 513.365723,208.847092 508.166168,207.316010 
	C512.060608,207.316010 515.955078,207.316010 520.149353,207.316010 
	C512.294739,212.830017 511.518494,222.318634 507.174957,229.804123 
	C505.976166,231.870041 505.178131,234.168472 503.904572,237.011093 
	C497.194000,227.109467 496.746368,214.765961 487.330841,206.377594 
	C492.295227,206.918350 497.259644,207.459106 501.884644,208.230103 
z"/>
<path fill="#FBFBFB" opacity="1.000000" stroke="none" 
	d="
M462.300171,214.919495 
	C463.924713,211.067276 465.611176,207.496201 470.152252,208.164062 
	C474.820160,208.850571 476.625366,212.594742 476.954346,216.788757 
	C477.235748,220.375854 477.244293,224.114456 476.526245,227.612122 
	C475.850403,230.904175 473.851746,233.831757 469.831604,233.930756 
	C465.859009,234.028580 463.481812,231.440598 462.864960,228.035950 
	C462.113678,223.889389 462.349731,219.563950 462.300171,214.919495 
z"/>
<path fill="#EAEAEA" opacity="1.000000" stroke="none" 
	d="
M458.514771,261.854980 
	C459.189301,263.576782 459.680450,264.962067 460.327728,266.787659 
	C457.866882,266.787659 455.693848,266.787659 452.972656,266.787659 
	C454.132568,263.968079 455.261658,261.223328 456.612366,257.939850 
	C457.353912,259.483490 457.842651,260.500977 458.514771,261.854980 
z"/>
</svg>